<svg xmlns="http://www.w3.org/2000/svg" xmlns:xlink="http://www.w3.org/1999/xlink" width="119.912" height="119.912" viewBox="0 0 119.912 119.912"><defs><style>.a{fill:#155c98;}.b,.d{fill:#fff;}.b{stroke:rgba(0,0,0,0);}.c,.d{stroke:none;}.e{filter:url(#a);}</style><filter id="a" x="0" y="0" width="119.912" height="119.912" filterUnits="userSpaceOnUse"><feOffset input="SourceAlpha"/><feGaussianBlur stdDeviation="6" result="b"/><feFlood flood-opacity="0.161"/><feComposite operator="in" in2="b"/><feComposite in="SourceGraphic"/></filter></defs><g transform="translate(-1058 -2898)"><g class="e" transform="matrix(1, 0, 0, 1, 1058, 2898)"><g class="a" transform="translate(18 18)"><path class="c" d="M 41.9560546875 81.91211700439453 C 36.56114196777344 81.91211700439453 31.32866668701172 80.85596466064453 26.40396690368652 78.77299499511719 C 21.64626693725586 76.76065826416016 17.37300491333008 73.87939453125 13.70285511016846 70.20925140380859 C 10.03271675109863 66.53911590576172 7.151467323303223 62.26584243774414 5.139129638671875 57.50814056396484 C 3.056154727935791 52.58344268798828 2.000004768371582 47.35096740722656 2.000004768371582 41.9560546875 C 2.000004768371582 36.56114196777344 3.056154727935791 31.32866668701172 5.139129638671875 26.40396690368652 C 7.151467323303223 21.64626693725586 10.03271675109863 17.37300491333008 13.70285511016846 13.70285511016846 C 17.37300491333008 10.03271675109863 21.64626693725586 7.151467323303223 26.40396690368652 5.139129638671875 C 31.32866668701172 3.056154727935791 36.56114196777344 2.000004768371582 41.9560546875 2.000004768371582 C 47.35096740722656 2.000004768371582 52.58344268798828 3.056154727935791 57.50814056396484 5.139129638671875 C 62.26584243774414 7.151467323303223 66.53911590576172 10.03271675109863 70.20925140380859 13.70285511016846 C 73.87939453125 17.37300491333008 76.76065826416016 21.64626693725586 78.77299499511719 26.40396690368652 C 80.85596466064453 31.32866668701172 81.91211700439453 36.56114196777344 81.91211700439453 41.9560546875 C 81.91211700439453 47.35096740722656 80.85596466064453 52.58344268798828 78.77299499511719 57.50814056396484 C 76.76065826416016 62.26584243774414 73.87939453125 66.53911590576172 70.20925140380859 70.20925140380859 C 66.53911590576172 73.87939453125 62.26584243774414 76.76065826416016 57.50814056396484 78.77299499511719 C 52.58344268798828 80.85596466064453 47.35096740722656 81.91211700439453 41.9560546875 81.91211700439453 Z"/><path class="d" d="M 41.9560546875 4 C 36.83025360107422 4 31.85991287231445 5.002998352050781 27.18306732177734 6.981124877929688 C 22.66376876831055 8.89263916015625 18.60418701171875 11.62995147705078 15.1170654296875 15.1170654296875 C 11.62995147705078 18.60418701171875 8.89263916015625 22.66376876831055 6.981124877929688 27.18306732177734 C 5.002998352050781 31.85991287231445 4 36.83025360107422 4 41.9560546875 C 4 47.08185577392578 5.002998352050781 52.05220031738281 6.981124877929688 56.72904205322266 C 8.89263916015625 61.24834060668945 11.62995147705078 65.30792236328125 15.1170654296875 68.7950439453125 C 18.60418701171875 72.28215789794922 22.66376876831055 75.01947021484375 27.18306732177734 76.93098449707031 C 31.85991287231445 78.90911102294922 36.83025360107422 79.912109375 41.9560546875 79.912109375 C 47.08185577392578 79.912109375 52.05220031738281 78.90911102294922 56.72904205322266 76.93098449707031 C 61.24834060668945 75.01947021484375 65.30792236328125 72.28215789794922 68.7950439453125 68.7950439453125 C 72.28215789794922 65.30792236328125 75.01947021484375 61.24834060668945 76.93098449707031 56.72904205322266 C 78.90911102294922 52.05220031738281 79.912109375 47.08185577392578 79.912109375 41.9560546875 C 79.912109375 36.83025360107422 78.90911102294922 31.85991287231445 76.93098449707031 27.18306732177734 C 75.01947021484375 22.66376876831055 72.28215789794922 18.60418701171875 68.7950439453125 15.1170654296875 C 65.30792236328125 11.62995147705078 61.24834060668945 8.89263916015625 56.72904205322266 6.981124877929688 C 52.05220031738281 5.002998352050781 47.08185577392578 4 41.9560546875 4 M 41.9560546875 0 C 65.12773895263672 0 83.912109375 18.78437042236328 83.912109375 41.9560546875 C 83.912109375 65.12773895263672 65.12773895263672 83.912109375 41.9560546875 83.912109375 C 18.78437042236328 83.912109375 0 65.12773895263672 0 41.9560546875 C 0 18.78437042236328 18.78437042236328 0 41.9560546875 0 Z"/></g></g><path class="b" d="M-1.912-28.815v7.242H9.767v6.732H-1.912v7.854H11.3V0h-21.93V-35.8H11.3v6.987Z" transform="translate(1118 2976)"/></g></svg>