<svg xmlns="http://www.w3.org/2000/svg" width="61" height="60" viewBox="0 0 61 60"><defs><style>.a{fill:#fff;}.b{fill:#155c98;}</style></defs><g transform="translate(-694 -2675)"><path class="a" d="M254.49,68.169H239.679A2.676,2.676,0,0,1,237,65.49V50.678A2.676,2.676,0,0,1,239.678,48h14.811a2.676,2.676,0,0,1,2.679,2.679V65.49a2.676,2.676,0,0,1-2.679,2.679Zm-7.405-15.441a5.357,5.357,0,1,0,5.357,5.357,5.357,5.357,0,0,0-5.357-5.357Zm6.5-2.447a1.223,1.223,0,1,0,1.223,1.223,1.223,1.223,0,0,0-1.223-1.223Zm-6.5,11.975a4.163,4.163,0,1,1,1.625-.328,4.163,4.163,0,0,1-1.625.328Z" transform="translate(477.892 2647.393)"/><ellipse class="b" cx="30.5" cy="30" rx="30.5" ry="30" transform="translate(694 2675)"/><path class="a" d="M254.49,68.169H239.679A2.676,2.676,0,0,1,237,65.49V50.678A2.676,2.676,0,0,1,239.678,48h14.811a2.676,2.676,0,0,1,2.679,2.679V65.49a2.676,2.676,0,0,1-2.679,2.679Zm-7.405-15.441a5.357,5.357,0,1,0,5.357,5.357,5.357,5.357,0,0,0-5.357-5.357Zm6.5-2.447a1.223,1.223,0,1,0,1.223,1.223,1.223,1.223,0,0,0-1.223-1.223Zm-6.5,11.975a4.163,4.163,0,1,1,1.625-.328,4.163,4.163,0,0,1-1.625.328Z" transform="translate(477 2647)"/></g></svg>