<svg xmlns="http://www.w3.org/2000/svg" width="61" height="61" viewBox="0 0 61 61"><defs><style>.a{fill:#155c98;}.b{fill:#fff;}</style></defs><g transform="translate(-1662 -2849)"><path class="a" d="M30.5,0A30.5,30.5,0,1,1,0,30.5,30.5,30.5,0,0,1,30.5,0Z" transform="translate(1662 2849)"/><g transform="translate(1683 2870)"><path class="b" d="M858.677,516.8h4.072v13.512h-4.071V516.8ZM873.7,530.315v-6.141c.056-4.4-1.892-4.091-1.892-4.091a2.494,2.494,0,0,0-2.58,2.1v8.125h-4.07V516.8h4.07v1.968a4.353,4.353,0,0,1,5.877-1.831c.068.036.133.073.2.111a6.961,6.961,0,0,1,2.465,5.64v7.623Z" transform="translate(-858.225 -511.057)"/><path class="b" d="M3.03-.031A2.41,2.41,0,1,1,.625,2.379,2.41,2.41,0,0,1,3.03-.031Z" transform="translate(-0.625 0.031)"/></g></g></svg>