<svg xmlns="http://www.w3.org/2000/svg" width="61" height="61" viewBox="0 0 61 61"><defs><style>.a{fill:#155c98;}.b{fill:#fff;}</style></defs><g transform="translate(-4780 -6018)"><path class="a" d="M30.5,0A30.5,30.5,0,1,1,0,30.5,30.5,30.5,0,0,1,30.5,0Z" transform="translate(4780 6018)"/><g transform="translate(0.285 0.124)"><g transform="translate(4798.543 6052.304)"><path class="b" d="M130.3,234.68a1.343,1.343,0,0,1-.695-.194c-8.1-4.871-17.7-2.054-17.794-2.025a1.351,1.351,0,0,1-.787-2.584c.438-.134,10.824-3.21,19.973,2.294a1.351,1.351,0,0,1-.7,2.508Z" transform="translate(-110.07 -228.901)"/></g><g transform="translate(4797.63 6045.857)"><path class="b" d="M129.945,208.811a1.59,1.59,0,0,1-.794-.213,27.063,27.063,0,0,0-20.524-2.409,1.6,1.6,0,1,1-1.035-3.02,29.98,29.98,0,0,1,23.151,2.662,1.6,1.6,0,0,1-.8,2.981Z" transform="translate(-106.512 -201.961)"/></g><g transform="translate(4795.715 6038.876)"><path class="b" d="M128.168,180.464a1.957,1.957,0,0,1-.912-.226c-11.727-6.159-23.771-2.472-23.892-2.434a1.965,1.965,0,1,1-1.183-3.747c.555-.175,13.741-4.21,26.9,2.7a1.965,1.965,0,0,1-.915,3.7Z" transform="translate(-100.808 -172.729)"/></g></g></g></svg>