<svg xmlns="http://www.w3.org/2000/svg" xmlns:xlink="http://www.w3.org/1999/xlink" width="119.912" height="119.912" viewBox="0 0 119.912 119.912"><defs><style>.a{fill:#155c98;}.b,.d{fill:#fff;}.c,.d{stroke:none;}.e{filter:url(#a);}</style><filter id="a" x="0" y="0" width="119.912" height="119.912" filterUnits="userSpaceOnUse"><feOffset input="SourceAlpha"/><feGaussianBlur stdDeviation="6" result="b"/><feFlood flood-opacity="0.161"/><feComposite operator="in" in2="b"/><feComposite in="SourceGraphic"/></filter></defs><g transform="translate(-1706 -2898)"><g class="e" transform="matrix(1, 0, 0, 1, 1706, 2898)"><g class="a" transform="translate(18 18)"><path class="c" d="M 41.9560546875 81.91211700439453 C 36.56114196777344 81.91211700439453 31.32866668701172 80.85596466064453 26.40396690368652 78.77299499511719 C 21.64626693725586 76.76065826416016 17.37300491333008 73.87939453125 13.70285511016846 70.20925140380859 C 10.03271675109863 66.53911590576172 7.151467323303223 62.26584243774414 5.139129638671875 57.50814056396484 C 3.056154727935791 52.58344268798828 2.000004768371582 47.35096740722656 2.000004768371582 41.9560546875 C 2.000004768371582 36.56114196777344 3.056154727935791 31.32866668701172 5.139129638671875 26.40396690368652 C 7.151467323303223 21.64626693725586 10.03271675109863 17.37300491333008 13.70285511016846 13.70285511016846 C 17.37300491333008 10.03271675109863 21.64626693725586 7.151467323303223 26.40396690368652 5.139129638671875 C 31.32866668701172 3.056154727935791 36.56114196777344 2.000004768371582 41.9560546875 2.000004768371582 C 47.35096740722656 2.000004768371582 52.58344268798828 3.056154727935791 57.50814056396484 5.139129638671875 C 62.26584243774414 7.151467323303223 66.53911590576172 10.03271675109863 70.20925140380859 13.70285511016846 C 73.87939453125 17.37300491333008 76.76065826416016 21.64626693725586 78.77299499511719 26.40396690368652 C 80.85596466064453 31.32866668701172 81.91211700439453 36.56114196777344 81.91211700439453 41.9560546875 C 81.91211700439453 47.35096740722656 80.85596466064453 52.58344268798828 78.77299499511719 57.50814056396484 C 76.76065826416016 62.26584243774414 73.87939453125 66.53911590576172 70.20925140380859 70.20925140380859 C 66.53911590576172 73.87939453125 62.26584243774414 76.76065826416016 57.50814056396484 78.77299499511719 C 52.58344268798828 80.85596466064453 47.35096740722656 81.91211700439453 41.9560546875 81.91211700439453 Z"/><path class="d" d="M 41.9560546875 4 C 36.83025360107422 4 31.85991287231445 5.002998352050781 27.18306732177734 6.981124877929688 C 22.66376876831055 8.89263916015625 18.60418701171875 11.62995147705078 15.1170654296875 15.1170654296875 C 11.62995147705078 18.60418701171875 8.89263916015625 22.66376876831055 6.981124877929688 27.18306732177734 C 5.002998352050781 31.85991287231445 4 36.83025360107422 4 41.9560546875 C 4 47.08185577392578 5.002998352050781 52.05220031738281 6.981124877929688 56.72904205322266 C 8.89263916015625 61.24834060668945 11.62995147705078 65.30792236328125 15.1170654296875 68.7950439453125 C 18.60418701171875 72.28215789794922 22.66376876831055 75.01947021484375 27.18306732177734 76.93098449707031 C 31.85991287231445 78.90911102294922 36.83025360107422 79.912109375 41.9560546875 79.912109375 C 47.08185577392578 79.912109375 52.05220031738281 78.90911102294922 56.72904205322266 76.93098449707031 C 61.24834060668945 75.01947021484375 65.30792236328125 72.28215789794922 68.7950439453125 68.7950439453125 C 72.28215789794922 65.30792236328125 75.01947021484375 61.24834060668945 76.93098449707031 56.72904205322266 C 78.90911102294922 52.05220031738281 79.912109375 47.08185577392578 79.912109375 41.9560546875 C 79.912109375 36.83025360107422 78.90911102294922 31.85991287231445 76.93098449707031 27.18306732177734 C 75.01947021484375 22.66376876831055 72.28215789794922 18.60418701171875 68.7950439453125 15.1170654296875 C 65.30792236328125 11.62995147705078 61.24834060668945 8.89263916015625 56.72904205322266 6.981124877929688 C 52.05220031738281 5.002998352050781 47.08185577392578 4 41.9560546875 4 M 41.9560546875 0 C 65.12773895263672 0 83.912109375 18.78437042236328 83.912109375 41.9560546875 C 83.912109375 65.12773895263672 65.12773895263672 83.912109375 41.9560546875 83.912109375 C 18.78437042236328 83.912109375 0 65.12773895263672 0 41.9560546875 C 0 18.78437042236328 18.78437042236328 0 41.9560546875 0 Z"/></g></g><path class="b" d="M724.571,490.517l2.977,1.715q4.523,2.606,9.046,5.213,4.244,2.448,8.487,4.9,3.407,1.966,6.817,3.928a9.545,9.545,0,0,1,2.372,1.873,9.208,9.208,0,0,1,2.114,3.987,8.255,8.255,0,0,1,.282,1.822c.011.448.055.9.029,1.344a11.875,11.875,0,0,1-.982,4.108,13.06,13.06,0,0,0-.925,2.72,4.368,4.368,0,0,0,.312,3.067,6.365,6.365,0,0,0,.749,1.04,5.97,5.97,0,0,1,1.371,2.691,5.727,5.727,0,0,1,.138,1.254,5.242,5.242,0,0,1-1.089,3.255,5.479,5.479,0,0,1-3.3,2.051,5.208,5.208,0,0,1-3.7-.681q-2.6-1.51-5.208-3.021-3.138-1.815-6.279-3.625-2.463-1.423-4.924-2.849c-1.366-.791-2.727-1.591-4.1-2.371a7.079,7.079,0,0,1-1.721-1.345,7.479,7.479,0,0,1-1.262-1.909,8.05,8.05,0,0,1-.7-2.3,9.363,9.363,0,0,1-.105-1.645,7.334,7.334,0,0,1,.835-3.249.193.193,0,0,0-.05-.274,7.924,7.924,0,0,1-2.155-4.061,10.081,10.081,0,0,1-.146-1.165,7.738,7.738,0,0,1,.579-3.761c.044-.107,0-.146-.059-.2a8.343,8.343,0,0,1-2.164-4.119,8.987,8.987,0,0,1-.187-2.668,8.155,8.155,0,0,1,1.1-3.581,7.686,7.686,0,0,1,1.327-1.6C724.226,490.884,724.4,490.7,724.571,490.517Zm4.088,23.678a4.248,4.248,0,0,0-.368,1.584,5.018,5.018,0,0,0,.244,1.827,4.034,4.034,0,0,0,1.8,2.4q3.411,1.968,6.817,3.942,2.23,1.288,4.462,2.572,2.463,1.425,4.923,2.855c1.441.836,2.884,1.667,4.322,2.508a2.032,2.032,0,0,0,3.176-1.521,2.246,2.246,0,0,0-.382-1.5c-.257-.371-.562-.708-.839-1.065a7.016,7.016,0,0,1-1.473-3.886,8.57,8.57,0,0,1,.14-2.235,14.141,14.141,0,0,1,.9-2.926,9.422,9.422,0,0,0,.953-3.314,12.17,12.17,0,0,0-.01-1.635,5.738,5.738,0,0,0-.483-1.805,5.433,5.433,0,0,0-1.881-2.366c-.692-.471-1.424-.883-2.149-1.3-2-1.161-4.009-2.311-6.012-3.468q-3.327-1.921-6.651-3.846L725.552,494.9c-.069-.039-.138-.077-.215-.12a4.408,4.408,0,0,0-.413,1.572,5.983,5.983,0,0,0,.24,2.308,4.5,4.5,0,0,0,1.876,2.583c.691.434,1.414.819,2.122,1.227l6.664,3.847c.178.1.355.207.532.311l-1.667,2.877-7.8-4.5a8.236,8.236,0,0,0-.14.884,5.882,5.882,0,0,0,.133,1.725,4.569,4.569,0,0,0,2.227,3.012c1.245.712,2.485,1.433,3.728,2.149l4.944,2.847c.288.166.573.336.861.505L736.988,519Z" transform="translate(1026.412 2444.483)"/></g></svg>