<svg xmlns="http://www.w3.org/2000/svg" width="56.159" height="50.061" viewBox="0 0 56.159 50.061"><defs><style>.a{fill:#155c98;}.b{fill:none;stroke:#09a7c7;stroke-width:4px;}</style></defs><path class="a" d="M404.313,337.843h35.6a1.313,1.313,0,0,1,1.22,1.339v24.9a1.21,1.21,0,0,1-1.2,1.219H427.975c-.093,0-.36-.035-.59-.035a.574.574,0,0,0-.36.074l-7.223,7.313v-6.206a1.174,1.174,0,0,0-.315-.8,1.1,1.1,0,0,0-.758-.348H404.313a1.186,1.186,0,0,1-1.22-1.154V339.183A1.291,1.291,0,0,1,404.313,337.843Z" transform="translate(-403.092 -337.843)"/><path class="b" d="M424.992,368.619h2.284c.091,0,.351-.034.576-.034a.56.56,0,0,1,.351.072l7.045,7.132v-6.053a1.136,1.136,0,0,1,.307-.784,1.069,1.069,0,0,1,.74-.339h14.06a1.157,1.157,0,0,0,1.189-1.125V343.15a1.26,1.26,0,0,0-1.189-1.307h-9.144" transform="translate(-397.387 -330.599)"/></svg>