<svg xmlns="http://www.w3.org/2000/svg" xmlns:xlink="http://www.w3.org/1999/xlink" width="119.912" height="119.912" viewBox="0 0 119.912 119.912"><defs><style>.a{fill:#155c98;}.b,.d{fill:#fff;}.c,.d{stroke:none;}.e{filter:url(#a);}</style><filter id="a" x="0" y="0" width="119.912" height="119.912" filterUnits="userSpaceOnUse"><feOffset input="SourceAlpha"/><feGaussianBlur stdDeviation="6" result="b"/><feFlood flood-opacity="0.161"/><feComposite operator="in" in2="b"/><feComposite in="SourceGraphic"/></filter></defs><g transform="translate(-734 -2898)"><g class="e" transform="matrix(1, 0, 0, 1, 734, 2898)"><g class="a" transform="translate(18 18)"><path class="c" d="M 41.9560546875 81.91211700439453 C 36.56114196777344 81.91211700439453 31.32866668701172 80.85596466064453 26.40396690368652 78.77299499511719 C 21.64626693725586 76.76065826416016 17.37300491333008 73.87939453125 13.70285511016846 70.20925140380859 C 10.03271675109863 66.53911590576172 7.151467323303223 62.26584243774414 5.139129638671875 57.50814056396484 C 3.056154727935791 52.58344268798828 2.000004768371582 47.35096740722656 2.000004768371582 41.9560546875 C 2.000004768371582 36.56114196777344 3.056154727935791 31.32866668701172 5.139129638671875 26.40396690368652 C 7.151467323303223 21.64626693725586 10.03271675109863 17.37300491333008 13.70285511016846 13.70285511016846 C 17.37300491333008 10.03271675109863 21.64626693725586 7.151467323303223 26.40396690368652 5.139129638671875 C 31.32866668701172 3.056154727935791 36.56114196777344 2.000004768371582 41.9560546875 2.000004768371582 C 47.35096740722656 2.000004768371582 52.58344268798828 3.056154727935791 57.50814056396484 5.139129638671875 C 62.26584243774414 7.151467323303223 66.53911590576172 10.03271675109863 70.20925140380859 13.70285511016846 C 73.87939453125 17.37300491333008 76.76065826416016 21.64626693725586 78.77299499511719 26.40396690368652 C 80.85596466064453 31.32866668701172 81.91211700439453 36.56114196777344 81.91211700439453 41.9560546875 C 81.91211700439453 47.35096740722656 80.85596466064453 52.58344268798828 78.77299499511719 57.50814056396484 C 76.76065826416016 62.26584243774414 73.87939453125 66.53911590576172 70.20925140380859 70.20925140380859 C 66.53911590576172 73.87939453125 62.26584243774414 76.76065826416016 57.50814056396484 78.77299499511719 C 52.58344268798828 80.85596466064453 47.35096740722656 81.91211700439453 41.9560546875 81.91211700439453 Z"/><path class="d" d="M 41.9560546875 4 C 36.83025360107422 4 31.85991287231445 5.002998352050781 27.18306732177734 6.981124877929688 C 22.66376876831055 8.89263916015625 18.60418701171875 11.62995147705078 15.1170654296875 15.1170654296875 C 11.62995147705078 18.60418701171875 8.89263916015625 22.66376876831055 6.981124877929688 27.18306732177734 C 5.002998352050781 31.85991287231445 4 36.83025360107422 4 41.9560546875 C 4 47.08185577392578 5.002998352050781 52.05220031738281 6.981124877929688 56.72904205322266 C 8.89263916015625 61.24834060668945 11.62995147705078 65.30792236328125 15.1170654296875 68.7950439453125 C 18.60418701171875 72.28215789794922 22.66376876831055 75.01947021484375 27.18306732177734 76.93098449707031 C 31.85991287231445 78.90911102294922 36.83025360107422 79.912109375 41.9560546875 79.912109375 C 47.08185577392578 79.912109375 52.05220031738281 78.90911102294922 56.72904205322266 76.93098449707031 C 61.24834060668945 75.01947021484375 65.30792236328125 72.28215789794922 68.7950439453125 68.7950439453125 C 72.28215789794922 65.30792236328125 75.01947021484375 61.24834060668945 76.93098449707031 56.72904205322266 C 78.90911102294922 52.05220031738281 79.912109375 47.08185577392578 79.912109375 41.9560546875 C 79.912109375 36.83025360107422 78.90911102294922 31.85991287231445 76.93098449707031 27.18306732177734 C 75.01947021484375 22.66376876831055 72.28215789794922 18.60418701171875 68.7950439453125 15.1170654296875 C 65.30792236328125 11.62995147705078 61.24834060668945 8.89263916015625 56.72904205322266 6.981124877929688 C 52.05220031738281 5.002998352050781 47.08185577392578 4 41.9560546875 4 M 41.9560546875 0 C 65.12773895263672 0 83.912109375 18.78437042236328 83.912109375 41.9560546875 C 83.912109375 65.12773895263672 65.12773895263672 83.912109375 41.9560546875 83.912109375 C 18.78437042236328 83.912109375 0 65.12773895263672 0 41.9560546875 C 0 18.78437042236328 18.78437042236328 0 41.9560546875 0 Z"/></g></g><path class="b" d="M-182.576,448.955c.3.006.389-.094.387-.393-.012-1.813-.006-3.626-.006-5.439v-.372a.825.825,0,0,1,.276.279c.485.736.967,1.475,1.454,2.21a.432.432,0,0,0,.8,0c.5-.767,1-1.538,1.506-2.306.055-.084.12-.16.23-.307v.479c0,1.837.006,3.674-.006,5.511,0,.3.136.345.377.325.2-.017.443.075.442-.294-.009-2.405,0-4.81-.009-7.216a.335.335,0,0,0-.094-.245.786.786,0,0,0-.857.227q-.875,1.333-1.748,2.667c-.064.1-.138.19-.23.318-.1-.137-.171-.242-.243-.349-.586-.887-1.181-1.768-1.75-2.665-.22-.348-.532-.212-.811-.2-.055,0-.139.269-.139.413-.009,2.32,0,4.641-.014,6.962C-183.012,448.917-182.863,448.949-182.576,448.955Z" transform="translate(955.825 2502.024)"/><path class="b" d="M-134.048,449c.227.006.4,0,.388-.313-.018-.737-.005-1.474-.005-2.212v-1.031c.569,0,1.088.012,1.605-.005a.444.444,0,0,1,.492.3c.423.935.873,1.857,1.313,2.784.247.52.4.585,1.029.389l-1.7-3.507.178-.062a2.026,2.026,0,0,0,1.393-2.33,1.985,1.985,0,0,0-2.027-1.794c-.93-.021-1.861,0-2.792-.012-.218,0-.3.076-.3.293q.005,3.59,0,7.181C-134.48,449.035-134.27,449-134.048,449Zm.392-6.863a.3.3,0,0,1,.2-.213c.735,0,1.473-.023,2.2.04a1.305,1.305,0,0,1,1.116,1.454,1.3,1.3,0,0,1-1.2,1.35c-.757.038-1.517.008-2.331.008C-133.664,443.871-133.669,443.005-133.655,442.14Z" transform="translate(921.963 2501.97)"/><path class="b" d="M-111.57,449c.33.007.406-.112.4-.421-.016-1.146-.006-2.293-.006-3.44,0-1.183-.013-2.366.008-3.549.006-.343-.13-.394-.425-.393s-.4.061-.4.379q.02,3.512,0,7.025C-111.993,448.937-111.87,448.991-111.57,449Z" transform="translate(906.273 2501.983)"/><path class="b" d="M-56.342,448.543c.048-.247.172-.479.216-.726.055-.307.219-.368.5-.358.639.021,1.28,0,1.92.008.348,0,.786-.106,1.017.064s.261.621.37.951c.182.555.365.641.972.427-.031-.112-.058-.227-.095-.339-.758-2.326-1.525-4.65-2.268-6.981a.472.472,0,0,0-.568-.39c-.3.018-.554-.033-.684.384-.73,2.335-1.5,4.658-2.252,6.986-.036.112-.06.227-.1.392.15.012.245.011.338.028A.481.481,0,0,0-56.342,448.543Zm1.973-6.257.077-.01,1.436,4.509H-55.8Z" transform="translate(868.121 2501.983)"/><path class="b" d="M-77.053,448.727a3.137,3.137,0,0,0,1.67.207,2.191,2.191,0,0,0,2.056-1.833,11.65,11.65,0,0,0,.071-2.021c0-.067-.194-.188-.3-.191-.64-.018-1.28,0-1.921-.014-.269-.007-.354.081-.356.352s.081.39.371.377c.455-.019.911-.005,1.437-.005a10.781,10.781,0,0,1-.094,1.508,1.593,1.593,0,0,1-1.825,1.137c-.966-.08-1.643-.621-1.67-1.442-.041-1.218-.011-2.439-.008-3.659a.852.852,0,0,1,.039-.212,1.842,1.842,0,0,1,2.57-1.061,1.5,1.5,0,0,1,.956,1.451c.007.431.319.293.546.311.272.021.272-.159.265-.358a2.12,2.12,0,0,0-1.486-2.061,4.35,4.35,0,0,0-1.636-.156,2.231,2.231,0,0,0-2.069,2.227c-.032,1.159-.035,2.32.007,3.478A2.152,2.152,0,0,0-77.053,448.727Z" transform="translate(882.877 2502.093)"/><path class="b" d="M-48.419,435.324a12.278,12.278,0,0,0,.78-1.206l-.062-.13c-.224.037-.552,0-.652.127a10.281,10.281,0,0,0-.73,1.261l.075.122C-48.806,435.444-48.524,435.455-48.419,435.324Z" transform="translate(862.379 2507.012)"/><path class="b" d="M-97.038,448.48c.022-.252.006-.507.006-.761q0-3.119,0-6.238c0-.119-.024-.3-.1-.347a.453.453,0,0,0-.7.433q0,2.375.012,4.751c0,.3,0,.6,0,.9l-.081.021c-.071-.108-.146-.213-.214-.323q-1.67-2.716-3.339-5.433c-.044-.072-.086-.146-.134-.216-.2-.284-.486-.141-.733-.13-.048,0-.123.254-.123.391-.008,1.692-.005,3.385-.005,5.077,0,.653-.005,1.305.005,1.958,0,.1.043.264.116.3a.441.441,0,0,0,.685-.419q-.008-2.666-.018-5.331c0-.127,0-.255,0-.485.117.163.175.234.223.311q1.7,2.763,3.394,5.527c.057.092.1.238.177.265a2.416,2.416,0,0,0,.7.129C-97.127,448.865-97.049,448.617-97.038,448.48Z" transform="translate(899.621 2502.08)"/><path class="b" d="M-69.394,488.039a6.528,6.528,0,0,0-3.9-3.429c-.787-.293-1.618-.465-2.453-.7.08-.111.17-.238.262-.363q1.561-2.115,3.124-4.228a.754.754,0,0,0,.187-.83c-.156-.324-.449-.317-.746-.317-1.306,0-2.612.013-3.917,0a1.164,1.164,0,0,0-1.044.524c-.593.824-1.21,1.63-1.806,2.452-1.49,2.054-3.047,4.064-4.443,6.18a6.346,6.346,0,0,0,2.5,9.3,10.024,10.024,0,0,0,6.262.983,7.733,7.733,0,0,0,5.319-2.926A6.2,6.2,0,0,0-69.394,488.039Zm-5.517,4.653a3.616,3.616,0,0,1-2.083.608,3.478,3.478,0,0,1-2.469-.946,2.184,2.184,0,0,1-.015-3.062,3.725,3.725,0,0,1,4.807-.161A2.2,2.2,0,0,1-74.911,492.692Z" transform="translate(887.604 2476.186)"/><path class="b" d="M-153.773,448.721a.429.429,0,0,0,.248.253,3.5,3.5,0,0,0,.657.012c-.037-.159-.049-.242-.074-.32-.777-2.386-1.565-4.77-2.327-7.161-.137-.43-.445-.261-.7-.3a.4.4,0,0,0-.5.326c-.75,2.357-1.518,4.709-2.278,7.062-.036.11-.056.225-.083.339.729.153.78.125.987-.53.076-.242.14-.489.237-.722.037-.089.15-.206.229-.207,1.063-.014,2.126-.009,3.2-.009C-154.043,447.9-153.921,448.314-153.773,448.721Zm-3.569-1.932,1.474-4.628,1.473,4.628Z" transform="translate(938.957 2501.982)"/><path class="b" d="M-131.728,485.53a7.871,7.871,0,0,0-7.012-.553c.051-.636.125-1.261.141-1.887.009-.363.1-.488.493-.484,2.43.019,4.86.011,7.29.009.741,0,1.012-.269,1.013-1q0-1.233,0-2.466c0-.7-.262-.963-.963-.963q-5.676,0-11.352,0c-.662,0-.929.26-.984.932-.079.975-.167,1.95-.249,2.926-.182,2.167-.37,4.334-.541,6.5-.055.7.217.97.924.972,1.112,0,2.225-.018,3.336.009a3.475,3.475,0,0,0,1.713-.353,3.249,3.249,0,0,1,2.365-.221,2.073,2.073,0,0,1,1.281,3.332,3.45,3.45,0,0,1-4.3.514,7.016,7.016,0,0,1-.92-.92,1.544,1.544,0,0,0-1.294-.6c-.653.01-1.305,0-1.958,0-.447,0-.9-.012-1.342.009a.608.608,0,0,0-.648.668,5.168,5.168,0,0,0,.138.929,5.967,5.967,0,0,0,3.788,4.094,10.73,10.73,0,0,0,7.139.327,6.66,6.66,0,0,0,4.077-2.995,6.594,6.594,0,0,0,.8-4.23A5.616,5.616,0,0,0-131.728,485.53Z" transform="translate(929.118 2476.172)"/><path class="b" d="M-181.635,478.17c-.955,0-1.91.019-2.864-.009a2.129,2.129,0,0,0-1.41.465q-3,2.307-6.006,4.616a.788.788,0,0,0-.154,1.275q.9,1.18,1.814,2.354c.424.549.754.6,1.316.174.928-.7,1.851-1.4,2.777-2.1.093-.07.191-.134.346-.242v.517q0,5.637,0,11.275c0,.671.275.957.936.961q1.613.011,3.227,0c.66,0,.94-.295.94-.959q0-8.7,0-17.4C-180.714,478.448-180.988,478.172-181.635,478.17Z" transform="translate(962.324 2476.192)"/></g></svg>