<svg xmlns="http://www.w3.org/2000/svg" xmlns:xlink="http://www.w3.org/1999/xlink" width="119.912" height="119.912" viewBox="0 0 119.912 119.912"><defs><style>.a{fill:#155c98;}.b,.d{fill:#fff;}.c,.d{stroke:none;}.e{filter:url(#a);}</style><filter id="a" x="0" y="0" width="119.912" height="119.912" filterUnits="userSpaceOnUse"><feOffset input="SourceAlpha"/><feGaussianBlur stdDeviation="6" result="b"/><feFlood flood-opacity="0.161"/><feComposite operator="in" in2="b"/><feComposite in="SourceGraphic"/></filter></defs><g transform="translate(-1382 -2898)"><g class="e" transform="matrix(1, 0, 0, 1, 1382, 2898)"><g class="a" transform="translate(18 18)"><path class="c" d="M 41.9560546875 81.91211700439453 C 36.56114196777344 81.91211700439453 31.32866668701172 80.85596466064453 26.40396690368652 78.77299499511719 C 21.64626693725586 76.76065826416016 17.37300491333008 73.87939453125 13.70285511016846 70.20925140380859 C 10.03271675109863 66.53911590576172 7.151467323303223 62.26584243774414 5.139129638671875 57.50814056396484 C 3.056154727935791 52.58344268798828 2.000004768371582 47.35096740722656 2.000004768371582 41.9560546875 C 2.000004768371582 36.56114196777344 3.056154727935791 31.32866668701172 5.139129638671875 26.40396690368652 C 7.151467323303223 21.64626693725586 10.03271675109863 17.37300491333008 13.70285511016846 13.70285511016846 C 17.37300491333008 10.03271675109863 21.64626693725586 7.151467323303223 26.40396690368652 5.139129638671875 C 31.32866668701172 3.056154727935791 36.56114196777344 2.000004768371582 41.9560546875 2.000004768371582 C 47.35096740722656 2.000004768371582 52.58344268798828 3.056154727935791 57.50814056396484 5.139129638671875 C 62.26584243774414 7.151467323303223 66.53911590576172 10.03271675109863 70.20925140380859 13.70285511016846 C 73.87939453125 17.37300491333008 76.76065826416016 21.64626693725586 78.77299499511719 26.40396690368652 C 80.85596466064453 31.32866668701172 81.91211700439453 36.56114196777344 81.91211700439453 41.9560546875 C 81.91211700439453 47.35096740722656 80.85596466064453 52.58344268798828 78.77299499511719 57.50814056396484 C 76.76065826416016 62.26584243774414 73.87939453125 66.53911590576172 70.20925140380859 70.20925140380859 C 66.53911590576172 73.87939453125 62.26584243774414 76.76065826416016 57.50814056396484 78.77299499511719 C 52.58344268798828 80.85596466064453 47.35096740722656 81.91211700439453 41.9560546875 81.91211700439453 Z"/><path class="d" d="M 41.9560546875 4 C 36.83025360107422 4 31.85991287231445 5.002998352050781 27.18306732177734 6.981124877929688 C 22.66376876831055 8.89263916015625 18.60418701171875 11.62995147705078 15.1170654296875 15.1170654296875 C 11.62995147705078 18.60418701171875 8.89263916015625 22.66376876831055 6.981124877929688 27.18306732177734 C 5.002998352050781 31.85991287231445 4 36.83025360107422 4 41.9560546875 C 4 47.08185577392578 5.002998352050781 52.05220031738281 6.981124877929688 56.72904205322266 C 8.89263916015625 61.24834060668945 11.62995147705078 65.30792236328125 15.1170654296875 68.7950439453125 C 18.60418701171875 72.28215789794922 22.66376876831055 75.01947021484375 27.18306732177734 76.93098449707031 C 31.85991287231445 78.90911102294922 36.83025360107422 79.912109375 41.9560546875 79.912109375 C 47.08185577392578 79.912109375 52.05220031738281 78.90911102294922 56.72904205322266 76.93098449707031 C 61.24834060668945 75.01947021484375 65.30792236328125 72.28215789794922 68.7950439453125 68.7950439453125 C 72.28215789794922 65.30792236328125 75.01947021484375 61.24834060668945 76.93098449707031 56.72904205322266 C 78.90911102294922 52.05220031738281 79.912109375 47.08185577392578 79.912109375 41.9560546875 C 79.912109375 36.83025360107422 78.90911102294922 31.85991287231445 76.93098449707031 27.18306732177734 C 75.01947021484375 22.66376876831055 72.28215789794922 18.60418701171875 68.7950439453125 15.1170654296875 C 65.30792236328125 11.62995147705078 61.24834060668945 8.89263916015625 56.72904205322266 6.981124877929688 C 52.05220031738281 5.002998352050781 47.08185577392578 4 41.9560546875 4 M 41.9560546875 0 C 65.12773895263672 0 83.912109375 18.78437042236328 83.912109375 41.9560546875 C 83.912109375 65.12773895263672 65.12773895263672 83.912109375 41.9560546875 83.912109375 C 18.78437042236328 83.912109375 0 65.12773895263672 0 41.9560546875 C 0 18.78437042236328 18.78437042236328 0 41.9560546875 0 Z"/></g></g><path class="b" d="M-688.864,181.951c-.136-.713-.252-1.541-.456-2.347a15.278,15.278,0,0,0-1.752-4.061,18.072,18.072,0,0,0-7.335-7.172,9.986,9.986,0,0,0-7.458-.817,13.344,13.344,0,0,0-5.01,2.744,19.627,19.627,0,0,0-5.865,8.443,9.9,9.9,0,0,0-.623,4.076,1.712,1.712,0,0,0,2.1,1.817,3.9,3.9,0,0,0,.729-.119q2.48-.737,4.953-1.5a19.4,19.4,0,0,1,8.885-.783,61.179,61.179,0,0,1,6.474,1.686,24.3,24.3,0,0,0,3.28.718,1.569,1.569,0,0,0,1.887-1.309A9.8,9.8,0,0,0-688.864,181.951Zm-2.021-29.216a7.982,7.982,0,0,0-.6-2.8,3.792,3.792,0,0,0-4.15-2.389,5.416,5.416,0,0,0-2.78,1.419,9.759,9.759,0,0,0-2.964,5.2,8.32,8.32,0,0,0,.11,4.582A4.177,4.177,0,0,0-699,161.469a4.054,4.054,0,0,0,4.219-.648A9.841,9.841,0,0,0-690.885,152.735Zm-14.35,3.91a10.5,10.5,0,0,0-1.307-5.26A7.808,7.808,0,0,0-709.857,148a3.747,3.747,0,0,0-4.12.169,4.946,4.946,0,0,0-1.894,3.475,9.635,9.635,0,0,0,.979,5.783,8.122,8.122,0,0,0,3.6,3.871,3.745,3.745,0,0,0,5.04-1.217A6.086,6.086,0,0,0-705.234,156.644Zm23.523,7.64a7.2,7.2,0,0,0-.535-2.9,3.787,3.787,0,0,0-4.147-2.532,5.062,5.062,0,0,0-2.574,1.206,9.568,9.568,0,0,0-3.194,5.292,8.1,8.1,0,0,0,.3,5.281,3.748,3.748,0,0,0,4.133,2.417,5.194,5.194,0,0,0,2.844-1.468A10.1,10.1,0,0,0-681.712,164.285Zm-32.2,3.793a10.486,10.486,0,0,0-.876-4.487,8.3,8.3,0,0,0-3.785-4.286,3.751,3.751,0,0,0-4.554.584,5.33,5.33,0,0,0-1.45,3.242,10,10,0,0,0,1.816,7,7.023,7.023,0,0,0,3.278,2.7,3.664,3.664,0,0,0,4.251-1.038A5.88,5.88,0,0,0-713.908,168.078Z" transform="translate(2145.647 2791.532)"/></g></svg>