<svg xmlns="http://www.w3.org/2000/svg" width="20.499" height="20.499" viewBox="0 0 20.499 20.499"><defs><style>.a{fill:rgba(0,0,0,0);}.a,.b{stroke:#fff;stroke-width:1.5px;}.b{fill:none;}</style></defs><g transform="translate(-239.062 -482.035)"><g transform="translate(246 488.917)"><circle class="a" cx="3.377" cy="3.377" r="3.377" transform="translate(0 0)"/></g><line class="b" x2="4.094" y2="2.364" transform="translate(252.363 494.213)"/><g transform="translate(239.812 482.785)"><path class="a" d="M249.312,520.417a9.5,9.5,0,0,1-9.5-9.5" transform="translate(-239.812 -501.418)"/><path class="a" d="M267.945,482.785a9.5,9.5,0,0,1,9.5,9.5" transform="translate(-258.445 -482.785)"/></g><g transform="translate(242.782 485.699)"><path class="a" d="M257.133,517.54a6.6,6.6,0,0,1-6.595-6.595" transform="translate(-250.538 -504.35)"/><path class="a" d="M268.138,493.345a6.6,6.6,0,0,1,6.595,6.595" transform="translate(-261.543 -493.345)"/></g></g></svg>