<svg xmlns="http://www.w3.org/2000/svg" width="61" height="60" viewBox="0 0 61 60"><defs><style>.a{fill:#155c98;}.b{fill:#fff;}</style></defs><ellipse class="a" cx="30.5" cy="30" rx="30.5" ry="30"/><path class="b" d="M17.693,15.845H2.913A3.061,3.061,0,0,1,0,12.6V3.248A3.061,3.061,0,0,1,2.913,0h14.78a3.061,3.061,0,0,1,2.913,3.248V12.6A3.061,3.061,0,0,1,17.693,15.845ZM8.14,4.184a.527.527,0,0,0-.309.087v7.3a.763.763,0,0,0,.338.087.458.458,0,0,0,.28-.087l4.637-3.419a.292.292,0,0,0,0-.465L8.449,4.272A.527.527,0,0,0,8.14,4.184Z" transform="translate(20 22)"/></svg>